<svg width="73" height="73" viewBox="0 0 73 73" fill="none" xmlns="http://www.w3.org/2000/svg">
<circle cx="36.5" cy="36.5" r="35.5" stroke="white" stroke-width="2"/>
<path d="M50.3496 31.4435C49.6039 29.7957 48.5334 28.3163 47.1743 27.0414C45.8152 25.7784 44.2395 24.7801 42.4834 24.0825C40.6672 23.3608 38.7428 23 36.7582 23C34.7736 23 32.8491 23.3608 31.0329 24.0825C29.2769 24.7801 27.7012 25.7664 26.3421 27.0414C24.9829 28.3163 23.9124 29.7957 23.1667 31.4435C22.3969 33.1515 22 34.9797 22 36.8561C22 40.1397 23.2268 43.291 25.476 45.7927L24.2732 52.3479L30.6721 49.4973C32.5845 50.3152 34.6172 50.7242 36.7461 50.7242C38.7307 50.7242 40.6552 50.3633 42.4714 49.6417C44.2275 48.944 45.8031 47.9578 47.1623 46.6828C48.5214 45.4079 49.5919 43.9284 50.3376 42.2806C51.1074 40.5727 51.5043 38.7444 51.5043 36.8681C51.5163 34.9797 51.1194 33.1635 50.3496 31.4435Z" stroke="white" stroke-width="2"/>
<path d="M42.7479 39.6226C42.1225 39.3099 41.6654 39.1175 41.3407 38.9972C41.1362 38.925 40.6551 38.7085 40.4867 38.8408C39.9575 39.2738 39.3922 40.5007 38.7908 40.7292C37.2993 40.4405 35.9161 39.4182 34.8336 38.3717C34.3525 37.9147 33.4625 36.6157 33.27 36.2669C33.2339 35.906 33.8834 35.4249 34.0277 35.1483C34.7735 34.3063 34.2082 33.7771 34.112 33.4283C33.9436 33.0675 33.6549 32.418 33.4023 31.8887C33.1858 31.5399 33.1377 31.0227 32.7528 30.8303C31.117 29.9883 30.1789 31.6722 29.794 32.5503C27.4726 38.1432 41.4249 48.7878 44.2634 41.4509C44.4078 40.8134 44.3476 40.5728 44.1311 40.2842C43.6981 39.9835 43.1929 39.8512 42.7479 39.6226Z" stroke="white" stroke-width="2"/>
</svg>
