<svg width="74" height="73" viewBox="0 0 74 73" fill="none" xmlns="http://www.w3.org/2000/svg">
<ellipse cx="37" cy="36.5" rx="36" ry="35.5" stroke="white" stroke-width="2"/>
<path d="M43.167 24.1412L42.441 23H38.0478V33.2785L38.0328 43.3182C38.0403 43.3928 38.0478 43.4749 38.0478 43.5495C38.0478 46.0632 35.9971 48.1144 33.4675 48.1144C30.9378 48.1144 28.8872 46.0706 28.8872 43.5495C28.8872 41.0358 30.9378 38.9846 33.4675 38.9846C33.9914 38.9846 34.5003 39.0816 34.9718 39.2456V34.2332C34.4853 34.1512 33.9839 34.1064 33.4675 34.1064C28.251 34.1139 24 38.3506 24 43.5569C24 48.7633 28.251 53 33.475 53C38.6989 53 42.9499 48.7633 42.9499 43.5569V31.6151C44.8434 33.5022 47.2907 35.3446 50 35.9339V30.8095C47.0587 29.5117 44.1324 25.6778 43.167 24.1412Z" stroke="white" stroke-width="2"/>
</svg>
