<svg width="74" height="73" viewBox="0 0 74 73" fill="none" xmlns="http://www.w3.org/2000/svg">
<ellipse cx="37" cy="36.5" rx="36" ry="35.5" stroke="white" stroke-width="2"/>
<path d="M29.627 28.6509H23.4946V48.2068H29.627V28.6509Z" stroke="white" stroke-width="2"/>
<path d="M46.2156 28.2266C45.9895 28.1983 45.7493 28.1842 45.5091 28.1701C42.0755 28.0288 40.1398 30.0635 39.4615 30.9396C39.2778 31.1798 39.193 31.3211 39.193 31.3211V28.707H33.3291V48.2629H39.193H39.4615C39.4615 46.2706 39.4615 44.2924 39.4615 42.3001C39.4615 41.2262 39.4615 40.1523 39.4615 39.0784C39.4615 37.7502 39.3626 36.3372 40.0267 35.122C40.5919 34.1047 41.6093 33.596 42.7538 33.596C46.145 33.596 46.2156 36.6622 46.2156 36.9448C46.2156 36.9589 46.2156 36.9731 46.2156 36.9731V48.3477H52.348V35.5883C52.348 31.2222 50.1296 28.6505 46.2156 28.2266Z" stroke="white" stroke-width="2"/>
<path d="M26.5607 26.1215C28.5273 26.1215 30.1215 24.5273 30.1215 22.5608C30.1215 20.5942 28.5273 19 26.5607 19C24.5942 19 23 20.5942 23 22.5608C23 24.5273 24.5942 26.1215 26.5607 26.1215Z" stroke="white" stroke-width="2"/>
</svg>
