<svg width="73" height="73" viewBox="0 0 73 73" fill="none" xmlns="http://www.w3.org/2000/svg">
<circle cx="36.5" cy="36.5" r="35.5" stroke="white" stroke-width="2"/>
<path d="M44.9507 48.1554H28.2046C25.8905 48.1554 24 46.2648 24 43.9508V27.2046C24 24.8905 25.8905 23 28.2046 23H44.9507C47.2648 23 49.1554 24.8905 49.1554 27.2046V43.9508C49.1554 46.2752 47.2752 48.1554 44.9507 48.1554Z" stroke="white" stroke-width="2"/>
<path d="M32.0165 40.1489C33.2355 41.3679 34.8575 42.0394 36.5827 42.0394C38.3079 42.0394 39.9195 41.3679 41.1489 40.1489C42.3679 38.9299 43.0394 37.3079 43.0394 35.5827C43.0394 33.8575 42.3679 32.2355 41.1489 31.0165C39.9299 29.7975 38.3079 29.126 36.5827 29.126C34.8575 29.126 33.2355 29.7975 32.0165 31.0165C30.7975 32.2355 30.126 33.8575 30.126 35.5827C30.126 37.3079 30.7975 38.9299 32.0165 40.1489Z" stroke="white" stroke-width="2"/>
<path d="M44.2983 28.914C44.983 28.914 45.538 28.359 45.538 27.6743C45.538 26.9896 44.983 26.4346 44.2983 26.4346C43.6136 26.4346 43.0586 26.9896 43.0586 27.6743C43.0586 28.359 43.6136 28.914 44.2983 28.914Z" stroke="white" stroke-width="2"/>
</svg>
